<svg xmlns="http://www.w3.org/2000/svg" viewBox="0 0 1152 896" width="32" height="32"><path d="M631.3 3.7c.9.2 2.5.2 3.5 0 .9-.3.1-.5-1.8-.5s-2.7.2-1.7.5M0 449v445l24.3.1c242 .5 498.6.5 498.2-.1-.2-.4-4.2-1-8.7-1.4-7.2-.6-18.3-2.4-35.8-5.7-2.5-.4-7.6-1.5-11.5-2.4-3.8-.9-8.1-1.9-9.5-2.2-1.4-.2-3.4-.8-4.5-1.3-1.1-.4-4-1.3-6.5-2-6.3-1.7-29.1-8.9-31.5-9.9-1.1-.5-4.7-1.9-8-3.1-3.3-1.3-7.6-2.9-9.5-3.7s-4.4-1.9-5.5-2.3c-8.7-3.7-37.3-18.1-47.5-24-21.4-12.5-46.1-29.5-60-41.3-2.7-2.3-7.4-6.2-10.4-8.6-5.7-4.6-37.5-36.3-44.2-44.1-2.2-2.5-4.3-5-4.9-5.6-.5-.7-2.1-2.6-3.5-4.4s-3-3.7-3.5-4.4c-5-5.3-24.9-33.5-31.4-44.1-1-1.7-3.2-5.3-4.8-8-8.3-13.6-25.1-47.3-28.9-57.8-.7-2-2-5.2-2.8-7-1.4-3.2-5.2-13.1-6.6-17.7-2.5-7.6-6.3-19.9-7-22.5-2.6-9.5-3.9-14.8-5.4-22-1-4.4-2.1-9.6-2.6-11.5s-1.1-5.1-1.4-7-1.2-7.3-2-12c-3.1-17.3-3.9-29.3-4.3-61-.6-43.8 1.2-63.4 10.1-106 1.8-9 6.8-28.2 10-38.7 2.4-7.5 13.8-37.7 17.5-45.8 5.5-12.2 17.8-36 23.6-45.4 3-5.1 5.5-9.4 5.5-9.6s4.3-6.9 9.7-14.7c9.4-14 14.3-20.4 28.8-37.8 8.3-10 40.4-42.9 45.7-46.8 2-1.5 8.7-7 15-12.3 9.3-7.9 32.5-24.8 40.3-29.6 1.1-.6 7.2-4.3 13.6-8.2C352.4 54.6 385 38 387.2 38c.8 0 1.8-.4 2.3-.9.6-.5 4.2-2.1 8-3.6 3.9-1.5 8.4-3.3 10-4 7.1-3 16.1-6.2 33-11.4 2.7-.9 10.6-2.9 19.5-5.1 1.9-.5 5.3-1.3 7.5-1.8 2.2-.6 6.7-1.6 10-2.2s7.9-1.6 10.2-2.1 5.9-.9 8-1c2.1 0 4.7-.4 5.8-.9s-108.4-.9-249.7-.9L0 4zM639.4 4.9c.3.4 3.4 1.1 6.8 1.5 3.5.4 8.6 1.1 11.3 1.6 4.7.8 6.7 1.3 18.5 3.9 2.5.5 7 1.6 10 2.5 3 .8 8.1 2.2 11.2 3 5.9 1.6 28.8 9.1 32.3 10.6 1.1.4 3.8 1.5 6 2.5 2.2.9 4.9 2 6 2.5s3.6 1.4 5.5 2.2c11.4 4.3 52 26 63.7 33.9 2.3 1.6 4.4 2.9 4.8 2.9.3 0 1.1.5 1.8 1 3 2.6 16.8 12 17.5 12 .5 0 2.1 1.3 3.7 3 1.6 1.6 3.4 3 3.9 3 .6 0 2.9 1.8 5.1 4 2.2 2.1 4.4 3.9 4.8 4 1.5 0 24.1 20.4 37.8 34 12.5 12.5 31.9 34.1 31.9 35.6 0 .3 2.2 3.2 4.8 6.3s6.9 8.5 9.4 12.1c8.1 11.6 13.8 20.1 13.8 20.6 0 .3.5 1 1 1.7 1.2 1.4 7.6 12 12.7 21.1 6.4 11.4 18.5 36.7 22.3 46.7 1.1 3 2.4 6.3 2.9 7.4 2.2 5.2 3.4 8.4 5.2 14 1.1 3.3 2.4 6.9 2.9 8 1.6 4 2.9 8.1 3.6 11.5.3 1.9 1 3.9 1.4 4.5.4.5 1 2.3 1.3 4 .2 1.6 1.2 5.7 2.2 9 1.5 5.7 2.3 8.8 4.6 19.5 1.6 7.4 3.9 21 4.8 28.1.5 3.7 1.1 7.1 1.4 7.5.3.5 1.3 8.1 2.2 17 1.4 13 1.6 22.1 1.2 47.5-.6 33.4-1.2 40.4-6.2 71.4-2.4 14.8-2.5 15.9-3.5 19.5-.5 1.9-1.6 6.6-2.5 10.5-2.2 9.5-9.6 34.5-11.5 39-.5 1.1-2 5.1-3.4 9-6.5 18.1-23.3 53-35.1 72.5-11.8 19.8-33.2 49.6-39.9 55.9-1.4 1.4-2.6 3.1-2.6 3.8 0 .8-.6 1.6-1.4 1.9s-3.1 2.6-5 5.1c-7.8 10-46.1 47.3-48.5 47.3-.5 0-1.1.4-1.3.8-.9 2.2-26.2 21-44.8 33.3-16.9 11.2-60.6 33.9-72 37.4-1.4.4-4.3 1.6-6.5 2.5-2.2 1-6.2 2.6-9 3.5-2.7.9-5.9 2.1-7 2.5-14.2 5.6-45.2 14-58 15.7-2.2.3-4.4.9-5 1.4-.5.5-2.3.9-4 .9-1.6 0-6.6.7-11 1.4-4.4.8-12.2 1.7-17.3 2.1s-9.1.9-8.8 1.2c.4.4 495.6.8 527.9.4l8.7-.1V4H895.4c-141.1 0-256.3.4-256 .9m459.5 817.7c2.7 6.3 9 12.3 15.6 15.1 2.5 1 4.5 2 4.5 2.3s-2.5 1.6-5.6 2.9c-6.3 2.7-12.3 9-15.1 15.6-1 2.5-2 4.5-2.3 4.5s-1.6-2.5-2.9-5.6c-2.7-6.3-9-12.3-15.6-15.1-2.5-1-4.5-2-4.5-2.3s2.5-1.6 5.6-2.9c6.3-2.7 12.3-9 15.1-15.6 1-2.5 2-4.5 2.3-4.5s1.6 2.5 2.9 5.6"/><path d="M359.2 147.1c-4 2.7-7 5.4-6.7 5.9s5.8 4.8 12.3 9.4c6.4 4.7 19.8 14.5 29.7 21.7 9.9 7.3 21.6 15.8 26 18.9s15.3 11 24.1 17.6c8.9 6.5 17.2 12.6 18.4 13.4s5.4 3.9 9.4 6.8c8.1 6.1 7.5 5.6 22.1 16.3 6.1 4.4 12.1 8.9 13.5 9.9 3.2 2.4 14.7 10.8 25.2 18.5 4.6 3.3 19.8 14.5 33.8 24.9 39.3 29.1 39.9 29.5 67 49.4 14.1 10.3 26.7 19.6 28.2 20.7 1.4 1.1 3.6 2.7 4.8 3.5s3 2.2 4 3 4.4 3.3 7.6 5.5c3.1 2.2 11.2 8 17.9 13 6.8 4.9 16.6 12.1 22 16 5.3 3.8 17.1 12.5 26.3 19.3s17.5 12.8 18.5 13.3c.9.5 1.7 1.3 1.7 1.8 0 .4-5.3 4.5-11.7 9.1-6.5 4.6-12 8.7-12.3 9-.4.5-23.9 17.7-63.8 46.7-5.1 3.8-14.4 10.6-20.7 15.3-12.3 9.1-15 11.1-41.6 30.6-9.6 7-23.2 17.1-30.4 22.4-7.1 5.3-17.3 12.7-22.5 16.6-5.2 3.8-12.5 9.1-16.2 11.9-3.7 2.7-7.7 5.8-9 6.7-3.3 2.4-29 21.4-47.8 35.3-24.1 17.8-38.8 28.6-57.1 41.9-9 6.6-16.6 12.3-16.9 12.6s-4.5 3.5-9.5 7c-4.9 3.5-12.6 9.1-17.1 12.5-4.4 3.3-11.5 8.5-15.7 11.5s-7.7 5.8-7.7 6.3c0 .9 14.8 10.7 16.2 10.7.9 0 17.6-11.6 18.8-13 .3-.3 9.1-6.8 19.5-14.3 18.8-13.6 42.1-30.6 47.3-34.5 1.5-1.2 11.5-8.4 22.2-16.2 10.7-7.7 20.6-14.9 22-16 1.4-1 8.4-6.2 15.5-11.4 7.2-5.2 13.5-9.9 14-10.3 1-.9 15.1-11.2 23.6-17.3 19-13.8 55.6-40.7 58.9-43.3.8-.7 10.1-7.4 20.5-15 10.5-7.6 25.1-18.3 32.5-23.7 7.4-5.5 23.6-17.3 36-26.2s23-16.7 23.7-17.2c.6-.6 4.6-3.6 8.8-6.6s14.1-10.2 22-16 18.6-13.7 23.9-17.5c5.3-3.9 9.6-7.2 9.6-7.5-.1-.7-6-5-55.5-40.5-6-4.3-12.2-8.8-13.6-9.9-1.4-1.2-3.6-2.8-4.9-3.6-1.2-.8-5.3-3.8-9.1-6.5-3.8-2.8-10.8-7.8-15.6-11.3-4.9-3.5-16.9-12.2-26.8-19.4-9.9-7.3-21.1-15.4-25-18.2-3.8-2.7-9.5-6.8-12.6-9.1-3-2.2-6.8-4.9-8.3-6s-4.6-3.4-6.9-5.1c-5.5-4.1-17.2-12.6-27.7-20.2-19.1-13.9-46.5-33.9-77.5-56.7-7.1-5.3-15.7-11.5-19-13.9-8.4-5.9-39.7-28.6-53.5-38.6-16.2-11.8-64.4-46.6-70.9-51.2-3-2.1-5.7-3.8-6-3.7-.3 0-3.9 2.3-7.9 5"/><path d="M334.8 165.7c-.1.5-3.3 3.3-7 6.3s-6.7 5.9-6.7 6.5c0 .5 3.2 3.4 7.2 6.2 9.8 7.2 39.6 29 42.7 31.3 1.4 1.1 8.1 6.1 15 11.2 24.1 17.8 35.5 26.3 37 27.5.8.7 16.4 12.4 34.7 26.2 18.2 13.7 36.5 27.6 40.6 30.8s13 10.1 19.7 15.3c6.8 5.2 14.7 11.3 17.5 13.5 2.9 2.2 9 6.9 13.6 10.5 4.6 3.5 17.1 13.4 27.8 22 10.7 8.5 28.5 22.6 39.5 31.3 11.1 8.7 23.5 18.4 27.6 21.7 4.1 3.2 11.3 8.8 16 12.5 4.7 3.6 10 7.8 11.9 9.3s4.1 3.3 5 4c1.5 1.1 1.5 1.3 0 2.2-.9.5-5.9 4.3-11 8.3-5.2 4-19.1 14.5-30.9 23.4s-30.9 23.3-42.5 32c-21.1 16-60.8 45.9-65.5 49.3-1.4 1-5.4 4-9 6.6s-7.9 5.9-9.6 7.3c-3.2 2.8-4.3 3.6-17.4 13.2-4.7 3.5-8.7 6.6-9 6.9s-9.3 7.2-20 15.2c-19.4 14.6-26.1 19.6-69.6 52.7-12.6 9.6-33 25.1-45.4 34.4-12.4 9.4-22.7 17.1-22.8 17.3-.4.3 20.4 17.7 21.7 18.2.4.1 3.5-1.7 6.9-4 8.8-6.3 55.2-39.8 58.4-42.2 1.5-1.2 4.3-3.2 6.3-4.6s4.2-3 4.8-3.5c.7-.6 7.7-5.8 15.7-11.5s17.3-12.5 20.6-15c3.4-2.5 7-5.1 8-5.8 7.3-4.9 45.5-32.5 54.7-39.4 4.3-3.2 8-5.8 8.3-5.8s1.1-.6 1.9-1.3c.7-.6 5.3-4 10.1-7.5 4.9-3.4 14.5-10.3 21.4-15.3 16.9-12.1 30.4-21.8 49.5-35.5 8.8-6.3 16.7-12.1 17.6-12.8s4.4-3.3 7.9-5.6c3.5-2.4 16.3-11.5 28.4-20.3 12.2-8.8 25-18 28.6-20.5s11.5-8.2 17.5-12.7c6.1-4.5 14.7-10.7 19.3-13.9 4.5-3.2 8-6.1 7.7-6.5-.2-.4-2.3-2.1-4.7-3.7s-4.5-3.1-4.8-3.4-19.4-14-42.5-30.5c-23.1-16.4-42.2-30.2-42.5-30.5-.3-.4-3.6-2.8-7.3-5.4-10.8-7.4-17.2-12-17.7-12.6-.3-.3-3-2.3-6-4.5-14.3-10.2-37.6-26.9-48-34.5-15.8-11.5-53.1-38.6-76.8-55.8-10.9-7.8-24.6-17.7-30.7-22-9.8-7-47-33.7-71-51-4.9-3.6-16-11.5-24.5-17.5-8.5-6.1-17.8-12.7-20.7-14.9-5.2-3.8-6.8-4.5-7.5-3.1"/><path d="M303.5 195.6c-7.1 7.3-13.1 13.8-13.3 14.3-.3 1 3 3.2 26.3 18 4.4 2.8 14.2 9 21.7 13.9 7.6 4.8 18.1 11.4 23.4 14.7s12.9 8.1 16.8 10.6 13.6 8.7 21.6 13.7c15.4 9.6 56.4 35.5 60.8 38.4 1.5 1 3.4 2.1 4.2 2.5s8.2 4.9 16.3 10c8.2 5.1 15 9.3 15.3 9.3s5 2.9 10.4 6.5 10.2 6.5 10.5 6.5c.4 0 2 .9 3.6 2.1 5.8 4.1 40.4 24.7 40.8 24.3.5-.5.2-.7-18-15.4-14.6-11.8-36.8-29.8-40.4-32.8-1.1-.9-5.4-4.4-9.5-7.7s-8.1-6.5-8.8-7.2-3.4-2.9-6-5-4.9-4-5.2-4.4c-.3-.3-2.3-1.8-4.5-3.4-2.2-1.7-4.2-3.2-4.5-3.5s-2.7-2.3-5.5-4.5c-2.7-2.2-5.9-4.8-7-5.7s-3.6-3-5.6-4.5-7.8-6.3-13-10.6-10.1-8.4-10.9-9c-.8-.7-4-3.2-7-5.7s-6.1-5-6.8-5.5c-.7-.6-1.8-1.5-2.5-2-4.9-4.2-31.3-25.2-32.5-26-.9-.6-2.2-1.6-3-2.2-.7-.7-5.7-4.8-11-9-5.3-4.3-10.6-8.6-11.7-9.5-6.1-5.2-31.1-24.8-31.5-24.7-.3 0-6.3 6.1-13.5 13.5M281 220.9c-.5 1.1-1.6 2.6-2.4 3.3-2.3 2.4-18.8 26.3-24.8 36-7.7 12.6-19 34.7-23.4 46-2.1 5.1-4.1 9.9-4.7 10.5-1.7 2.3 2.1 2.6 20.7 1.9 32.7-1.3 41.4-1.5 103.6-2.7 33.8-.6 64.8-1.4 68.7-1.8l7.3-.6-21.8-14.5c-11.9-7.9-21.9-14.7-22.2-15s-3-2.1-6-4-5.9-3.8-6.5-4.2c-1.1-.9-5-3.5-15.5-10.5-3.6-2.3-7.2-4.7-8-5.3-.8-.5-3.7-2.4-6.5-4.2-2.7-1.8-5.4-3.6-6-4.1-.5-.4-10.2-6.8-21.5-14.2-11.3-7.3-20.9-13.7-21.5-14.2-2.2-1.8-6.5-4.3-7.4-4.3-.6 0-1.5.9-2.1 1.9M580 252.5c0 .2 1.4 1.3 3 2.5 1.7 1.2 3 1.8 3 1.3 0-.4-1.4-1.6-3-2.5-1.7-.9-3-1.5-3-1.3M589.5 259.6c1.7 1.3 13.6 10.1 26.5 19.4 22.4 16.2 28.9 20.9 61.5 44.5 15 10.9 75.8 54.2 104.5 74.5 9.6 6.8 21.1 14.9 25.5 18.2 9.7 7.1 10.4 7.5 18.2 13 3.4 2.4 13.7 9.7 22.8 16.3l16.6 12-3.7 3c-2.1 1.6-6.6 5-10.1 7.5-7.7 5.4-63.2 45.5-68 49-1.8 1.4-5.9 4.3-9.1 6.5-3.1 2.2-11.8 8.5-19.2 14s-17.6 12.9-22.7 16.5c-10.7 7.5-68.7 49.5-87.8 63.5-7.1 5.2-15.7 11.5-19 13.8-3.3 2.4-12.7 9.2-21 15.2-8.2 5.9-17.2 12.4-20 14.3-6.7 4.7-13.5 9.7-16.5 12.3l-2.5 2.1 2.5-1.3c1.4-.6 2.7-1.5 3-1.8s5.7-4.1 12-8.3 16.6-11.2 22.7-15.5c6.2-4.3 21.5-14.9 34-23.5 12.6-8.6 29.6-20.3 37.8-26 18.9-13.1 31.2-21.5 49.5-34.1 14.4-9.9 17.3-11.9 42.5-29.4 7.2-5 18.7-12.8 25.5-17.5 22.8-15.5 41.4-28.1 51-34.7 5.3-3.6 15.5-10.7 22.8-15.6 7.2-5 13.1-9.3 12.9-9.7-.1-.4-21.8-15.2-48.2-32.9s-54.3-36.5-62-41.9c-7.7-5.3-26.1-17.9-41-27.9-14.8-10.1-33.5-22.8-41.5-28.3s-19.4-13.5-25.5-17.6c-6-4.1-13.9-9.6-17.5-12-3.6-2.5-12.1-8.4-19-13.1s-14.3-9.8-16.5-11.3c-2.2-1.6-5.8-4.1-8-5.5s-6.3-4.4-9.2-6.5c-5.8-4.2-8.5-5.1-3.8-1.2M222.2 326.7c-.6 1.6-2 5.9-3.2 9.8-1.2 3.8-2.6 7.9-3 9-1.1 2.6-3.6 12.9-4.5 17.9l-.6 3.9 24.3-.6c13.4-.4 56.7-1.2 96.3-1.7 39.6-.6 89.9-1.5 111.8-2 21.9-.6 43.4-1 47.9-1h8.2l-17.9-11.9c-9.9-6.6-18.4-12.3-19-12.8-.5-.4-3.5-2.4-6.5-4.4l-5.6-3.6-36.9-.7c-20.4-.4-50.7-1.1-67.5-1.6s-49.8-1.2-73.5-1.5c-23.6-.3-44.4-.8-46.1-1.1-2.7-.4-3.3-.1-4.2 2.3M208.6 376.2c-2.5 12.3-4 21.4-5.3 32.1l-.6 4.8 23.4-.6c12.9-.3 54-1 91.4-1.5 68.8-1 160.8-2.8 181-3.5 6.1-.2 23.7-.4 39.3-.4 15.5-.1 28.2-.4 28.2-.9-.1-.6-23.3-16.5-36-24.5l-5.6-3.5-47.9-.6c-41.9-.6-126-2.1-235.1-4.1l-32.2-.7z"/><path d="M201.7 426.6c-.4 4.2-.7 13.6-.7 20.7v13l26.3-.6c14.4-.4 76.2-1.4 137.2-2.2 61.1-.8 119.3-1.6 129.5-1.9s42.5-.9 71.8-1.2c29.2-.4 53.2-.9 53.2-1.2s-1.6-3.8-3.5-7.8c-3.7-7.6-9.1-13.4-17-17.7-4.7-2.7-.7-2.6-141.1-4.7-35.1-.5-87.7-1.4-116.9-1.9-29.1-.6-72.2-1.3-95.6-1.6l-42.6-.6zM201.7 466.6c-.4.4-.5 2.8-.2 5.3.2 2.5.9 9.3 1.5 15.1s1.6 13.4 2.2 16.9l1.1 6.3 22.6-.6c38.2-1 68-1.6 136.6-2.6 36.3-.5 78.4-1.2 93.5-1.5s46.6-.8 70-1.1l42.4-.7 17.6-14.6c16-13.3 19.3-16.2 18.7-16.7-.1-.1-37.8-.7-83.7-1.3s-94.7-1.3-108.5-1.6c-13.7-.3-51.5-1-84-1.5-32.4-.5-74.7-1.2-94-1.6-19.2-.3-35.3-.2-35.8.2M207.9 516.1c-.6.3-.6 1.7 0 3.5.5 1.6 1.6 6.5 2.5 10.9 2 9.7 3.8 16.1 7.9 28.4l3.2 9.4 46.5-.6c25.6-.4 61.4-1.2 79.5-1.7 18.2-.5 59.8-1.5 92.5-2 32.7-.6 59.7-1.4 60-1.8s3-2.7 6-5.2 5.7-4.7 6-5 3.7-3 7.5-6c3.9-3 7.5-5.9 8.1-6.5.6-.5 5.9-4.8 11.7-9.5 8.4-6.6 10.3-8.6 8.9-9.1-.9-.4-16.3-.8-34.2-.8-17.9-.1-40.6-.3-50.5-.6s-64-1-120.3-1.6-109.6-1.4-118.4-1.7c-8.8-.4-16.4-.4-16.9-.1M224.5 576.2c2.8 9.1 16.8 39.7 18.8 41 1.2.7 27.4.3 83.7-1.3 19.5-.5 52.2-1.4 72.7-1.9 33.8-.8 37.3-1 39-2.7 1.1-1 3.7-3.2 5.8-5 2.2-1.7 9.2-7.3 15.6-12.5 6.4-5.1 13.2-10.5 15-11.9l3.4-2.7-8.5-.6c-4.7-.3-26.9-.8-49.5-1.1-70.8-.9-157.2-2.4-177.3-3l-19.4-.6zM249.1 628.6c5.5 10 21.5 33.7 30.8 45.6 9.1 11.6 32.5 36.8 34.2 36.8.8 0 54.1-42 55.9-44 .3-.3 2.8-2.4 5.5-4.5 2.8-2.2 5.2-4.2 5.5-4.5s4.8-3.9 10-8c5.2-4 9.7-7.6 10-8 .3-.3 4-3.4 8.3-6.9 4.2-3.5 7.7-6.7 7.7-7.1 0-1.1-20-1.7-143.3-4.6l-27.8-.6z"/></svg>