<?xml version="1.0" standalone="no"?>
<!DOCTYPE svg PUBLIC "-//W3C//DTD SVG 20010904//EN"
 "http://www.w3.org/TR/2001/REC-SVG-20010904/DTD/svg10.dtd">
<svg version="1.0" xmlns="http://www.w3.org/2000/svg"
 width="1152.000000pt" height="896.000000pt" viewBox="0 0 1152.000000 896.000000"
 preserveAspectRatio="xMidYMid meet">

<g transform="translate(0.000000,896.000000) scale(0.100000,-0.100000)"
fill="#000000" stroke="none">
<path d="M6313 8923 c9 -2 25 -2 35 0 9 3 1 5 -18 5 -19 0 -27 -2 -17 -5z"/>
<path d="M0 4470 l0 -4450 243 -1 c2420 -5 4986 -5 4982 1 -2 4 -42 10 -87 14
-72 6 -183 24 -358 57 -25 4 -76 15 -115 24 -38 9 -81 19 -95 22 -14 2 -34 8
-45 13 -11 4 -40 13 -65 20 -63 17 -291 89 -315 99 -11 5 -47 19 -80 31 -33
13 -76 29 -95 37 -19 8 -44 19 -55 23 -87 37 -373 181 -475 240 -214 125 -461
295 -600 413 -27 23 -74 62 -104 86 -57 46 -375 363 -442 441 -22 25 -43 50
-49 56 -5 7 -21 26 -35 44 -14 18 -30 37 -35 44 -50 53 -249 335 -314 441 -10
17 -32 53 -48 80 -83 136 -251 473 -289 578 -7 20 -20 52 -28 70 -14 32 -52
131 -66 177 -25 76 -63 199 -70 225 -26 95 -39 148 -54 220 -10 44 -21 96 -26
115 -5 19 -11 51 -14 70 -3 19 -12 73 -20 120 -31 173 -39 293 -43 610 -6 438
12 634 101 1060 18 90 68 282 100 387 24 75 138 377 175 458 55 122 178 360
236 454 30 51 55 94 55 96 0 2 43 69 97 147 94 140 143 204 288 378 83 100
404 429 457 468 20 15 87 70 150 123 93 79 325 248 403 296 11 6 72 43 136 82
123 75 449 241 471 241 8 0 18 4 23 9 6 5 42 21 80 36 39 15 84 33 100 40 71
30 161 62 330 114 27 9 106 29 195 51 19 5 53 13 75 18 22 6 67 16 100 22 33
6 79 16 102 21 23 5 59 9 80 10 21 0 47 4 58 9 11 5 -1084 9 -2497 9 l-2518 1
0 -4450z"/>
<path d="M6394 8911 c3 -4 34 -11 68 -15 35 -4 86 -11 113 -16 47 -8 67 -13
185 -39 25 -5 70 -16 100 -25 30 -8 81 -22 112 -30 59 -16 288 -91 323 -106
11 -4 38 -15 60 -25 22 -9 49 -20 60 -25 11 -5 36 -14 55 -22 114 -43 520
-260 637 -339 23 -16 44 -29 48 -29 3 0 11 -5 18 -10 30 -26 168 -120 175
-120 5 0 21 -13 37 -30 16 -16 34 -30 39 -30 6 0 29 -18 51 -40 22 -21 44 -39
48 -40 15 0 241 -204 378 -340 125 -125 319 -341 319 -356 0 -3 22 -32 48 -63
26 -31 69 -85 94 -121 81 -116 138 -201 138 -206 0 -3 5 -10 10 -17 12 -14 76
-120 127 -211 64 -114 185 -367 223 -467 11 -30 24 -63 29 -74 22 -52 34 -84
52 -140 11 -33 24 -69 29 -80 16 -40 29 -81 36 -115 3 -19 10 -39 14 -45 4 -5
10 -23 13 -40 2 -16 12 -57 22 -90 15 -57 23 -88 46 -195 16 -74 39 -210 48
-281 5 -37 11 -71 14 -75 3 -5 13 -81 22 -170 14 -130 16 -221 12 -475 -6
-334 -12 -404 -62 -714 -24 -148 -25 -159 -35 -195 -5 -19 -16 -66 -25 -105
-22 -95 -96 -345 -115 -390 -5 -11 -20 -51 -34 -90 -65 -181 -233 -530 -351
-725 -118 -198 -332 -496 -399 -559 -14 -14 -26 -31 -26 -38 0 -8 -6 -16 -14
-19 -8 -3 -31 -26 -50 -51 -78 -100 -461 -473 -485 -473 -5 0 -11 -4 -13 -8
-9 -22 -262 -210 -448 -333 -169 -112 -606 -339 -720 -374 -14 -4 -43 -16 -65
-25 -22 -10 -62 -26 -90 -35 -27 -9 -59 -21 -70 -25 -142 -56 -452 -140 -580
-157 -22 -3 -44 -9 -50 -14 -5 -5 -23 -9 -40 -9 -16 0 -66 -7 -110 -14 -44 -8
-122 -17 -173 -21 -51 -4 -91 -9 -88 -12 4 -4 4956 -8 5279 -4 l87 1 0 4450 0
4450 -2566 0 c-1411 0 -2563 -4 -2560 -9z m4595 -8177 c27 -63 90 -123 156
-151 25 -10 45 -20 45 -23 0 -3 -25 -16 -56 -29 -63 -27 -123 -90 -151 -156
-10 -25 -20 -45 -23 -45 -3 0 -16 25 -29 56 -27 63 -90 123 -156 151 -25 10
-45 20 -45 23 0 3 25 16 56 29 63 27 123 90 151 156 10 25 20 45 23 45 3 0 16
-25 29 -56z"/>
<path d="M3592 7489 c-40 -27 -70 -54 -67 -59 3 -5 58 -48 123 -94 64 -47 198
-145 297 -217 99 -73 216 -158 260 -189 44 -31 153 -110 241 -176 89 -65 172
-126 184 -134 12 -8 54 -39 94 -68 81 -61 75 -56 221 -163 61 -44 121 -89 135
-99 32 -24 147 -108 252 -185 46 -33 198 -145 338 -249 393 -291 399 -295 670
-494 141 -103 267 -196 282 -207 14 -11 36 -27 48 -35 12 -8 30 -22 40 -30 10
-8 44 -33 76 -55 31 -22 112 -80 179 -130 68 -49 166 -121 220 -160 53 -38
171 -125 263 -193 92 -68 175 -128 185 -133 9 -5 17 -13 17 -18 0 -4 -53 -45
-117 -91 -65 -46 -120 -87 -123 -90 -4 -5 -239 -177 -638 -467 -51 -38 -144
-106 -207 -153 -123 -91 -150 -111 -416 -306 -96 -70 -232 -171 -304 -224 -71
-53 -173 -127 -225 -166 -52 -38 -125 -91 -162 -119 -37 -27 -77 -58 -90 -67
-33 -24 -290 -214 -478 -353 -241 -178 -388 -286 -571 -419 -90 -66 -166 -123
-169 -126 -3 -3 -45 -35 -95 -70 -49 -35 -126 -91 -171 -125 -44 -33 -115 -85
-157 -115 -42 -30 -77 -58 -77 -63 0 -9 148 -107 162 -107 9 0 176 116 188
130 3 3 91 68 195 143 188 136 421 306 473 345 15 12 115 84 222 162 107 77
206 149 220 160 14 10 84 62 155 114 72 52 135 99 140 103 10 9 151 112 236
173 190 138 556 407 589 433 8 7 101 74 205 150 105 76 251 183 325 237 74 55
236 173 360 262 124 89 230 167 237 172 6 6 46 36 88 66 42 30 141 102 220
160 79 58 186 137 239 175 53 39 96 72 96 75 -1 7 -60 50 -555 405 -60 43
-122 88 -136 99 -14 12 -36 28 -49 36 -12 8 -53 38 -91 65 -38 28 -108 78
-156 113 -49 35 -169 122 -268 194 -99 73 -211 154 -250 182 -38 27 -95 68
-126 91 -30 22 -68 49 -83 60 -15 11 -46 34 -69 51 -55 41 -172 126 -277 202
-191 139 -465 339 -775 567 -71 53 -157 115 -190 139 -84 59 -397 286 -535
386 -162 118 -644 466 -709 512 -30 21 -57 38 -60 37 -3 0 -39 -23 -79 -50z"/>
<path d="M3348 7303 c-1 -5 -33 -33 -70 -63 -37 -30 -67 -59 -67 -65 0 -5 32
-34 72 -62 98 -72 396 -290 427 -313 14 -11 81 -61 150 -112 241 -178 355
-263 370 -275 8 -7 164 -124 347 -262 182 -137 365 -276 406 -308 41 -32 130
-101 197 -153 68 -52 147 -113 175 -135 29 -22 90 -69 136 -105 46 -35 171
-134 278 -220 107 -85 285 -226 395 -313 111 -87 235 -184 276 -217 41 -32
113 -88 160 -125 47 -36 100 -78 119 -93 19 -15 41 -33 50 -40 15 -11 15 -13
0 -22 -9 -5 -59 -43 -110 -83 -52 -40 -191 -145 -309 -234 -118 -89 -309 -233
-425 -320 -211 -160 -608 -459 -655 -493 -14 -10 -54 -40 -90 -66 -36 -26 -79
-59 -96 -73 -32 -28 -43 -36 -174 -132 -47 -35 -87 -66 -90 -69 -3 -3 -93 -72
-200 -152 -194 -146 -261 -196 -696 -527 -126 -96 -330 -251 -454 -344 -124
-94 -227 -171 -228 -173 -4 -3 204 -177 217 -182 4 -1 35 17 69 40 88 63 552
398 584 422 15 12 43 32 63 46 20 14 42 30 48 35 7 6 77 58 157 115 80 57 173
125 206 150 34 25 70 51 80 58 73 49 455 325 547 394 43 32 80 58 83 58 3 0
11 6 19 13 7 6 53 40 101 75 49 34 145 103 214 153 169 121 304 218 495 355
88 63 167 121 176 128 9 7 44 33 79 56 35 24 163 115 284 203 122 88 250 180
286 205 36 25 115 82 175 127 61 45 147 107 193 139 45 32 80 61 77 65 -2 4
-23 21 -47 37 -24 16 -45 31 -48 34 -3 3 -194 140 -425 305 -231 164 -422 302
-425 305 -3 4 -36 28 -73 54 -108 74 -172 120 -177 126 -3 3 -30 23 -60 45
-143 102 -376 269 -480 345 -158 115 -531 386 -768 558 -109 78 -246 177 -307
220 -98 70 -470 337 -710 510 -49 36 -160 115 -245 175 -85 61 -178 127 -207
149 -52 38 -68 45 -75 31z"/>
<path d="M3035 7004 c-71 -73 -131 -138 -133 -143 -3 -10 30 -32 263 -180 44
-28 142 -90 217 -139 76 -48 181 -114 234 -147 53 -33 129 -81 168 -106 39
-25 136 -87 216 -137 154 -96 564 -355 608 -384 15 -10 34 -21 42 -25 8 -4 82
-49 163 -100 82 -51 150 -93 153 -93 3 0 50 -29 104 -65 54 -36 102 -65 105
-65 4 0 20 -9 36 -21 58 -41 404 -247 408 -243 5 5 2 7 -180 154 -146 118
-368 298 -404 328 -11 9 -54 44 -95 77 -41 33 -81 65 -88 72 -7 7 -34 29 -60
50 -26 21 -49 40 -52 44 -3 3 -23 18 -45 34 -22 17 -42 32 -45 35 -3 3 -27 23
-55 45 -27 22 -59 48 -70 57 -11 9 -36 30 -56 45 -20 15 -78 63 -130 106 -52
43 -101 84 -109 90 -8 7 -40 32 -70 57 -30 25 -61 50 -68 55 -7 6 -18 15 -25
20 -49 42 -313 252 -325 260 -9 6 -22 16 -30 22 -7 7 -57 48 -110 90 -53 43
-106 86 -117 95 -61 52 -311 248 -315 247 -3 0 -63 -61 -135 -135z"/>
<path d="M2810 6751 c-5 -11 -16 -26 -24 -33 -23 -24 -188 -263 -248 -360 -77
-126 -190 -347 -234 -460 -21 -51 -41 -99 -47 -105 -17 -23 21 -26 207 -19
327 13 414 15 1036 27 338 6 648 14 687 18 l73 6 -218 145 c-119 79 -219 147
-222 150 -3 3 -30 21 -60 40 -30 19 -59 38 -65 42 -11 9 -50 35 -155 105 -36
23 -72 47 -80 53 -8 5 -37 24 -65 42 -27 18 -54 36 -60 41 -5 4 -102 68 -215
142 -113 73 -209 137 -215 142 -22 18 -65 43 -74 43 -6 0 -15 -9 -21 -19z"/>
<path d="M5800 6435 c0 -2 14 -13 30 -25 17 -12 30 -18 30 -13 0 4 -14 16 -30
25 -17 9 -30 15 -30 13z"/>
<path d="M5895 6364 c17 -13 136 -101 265 -194 224 -162 289 -209 615 -445
150 -109 758 -542 1045 -745 96 -68 211 -149 255 -182 97 -71 104 -75 182
-130 34 -24 137 -97 228 -163 l166 -120 -37 -30 c-21 -16 -66 -50 -101 -75
-77 -54 -632 -455 -680 -490 -18 -14 -59 -43 -91 -65 -31 -22 -118 -85 -192
-140 -74 -55 -176 -129 -227 -165 -107 -75 -687 -495 -878 -635 -71 -52 -157
-115 -190 -138 -33 -24 -127 -92 -210 -152 -82 -59 -172 -124 -200 -143 -67
-47 -135 -97 -165 -123 l-25 -21 25 13 c14 6 27 15 30 18 3 3 57 41 120 83 63
42 166 112 227 155 62 43 215 149 340 235 126 86 296 203 378 260 189 131 312
215 495 341 144 99 173 119 425 294 72 50 187 128 255 175 228 155 414 281
510 347 53 36 155 107 228 156 72 50 131 93 129 97 -1 4 -218 152 -482 329
-264 177 -543 365 -620 419 -77 53 -261 179 -410 279 -148 101 -335 228 -415
283 -80 55 -194 135 -255 176 -60 41 -139 96 -175 120 -36 25 -121 84 -190
131 -69 47 -143 98 -165 113 -22 16 -58 41 -80 55 -22 14 -63 44 -92 65 -58
42 -85 51 -38 12z"/>
<path d="M2222 5693 c-6 -16 -20 -59 -32 -98 -12 -38 -26 -79 -30 -90 -11 -26
-36 -129 -45 -179 l-6 -39 243 6 c134 4 567 12 963 17 396 6 899 15 1118 20
219 6 434 10 479 10 l82 0 -179 119 c-99 66 -184 123 -190 128 -5 4 -35 24
-65 44 l-56 36 -369 7 c-204 4 -507 11 -675 16 -168 5 -498 12 -735 15 -236 3
-444 8 -461 11 -27 4 -33 1 -42 -23z"/>
<path d="M2086 5198 c-25 -123 -40 -214 -53 -321 l-6 -48 234 6 c129 3 540 10
914 15 688 10 1608 28 1810 35 61 2 237 4 393 4 155 1 282 4 282 9 -1 6 -233
165 -360 245 l-56 35 -479 6 c-419 6 -1260 21 -2351 41 l-322 7 -6 -34z"/>
<path d="M2017 4694 c-4 -42 -7 -136 -7 -207 l0 -130 263 6 c144 4 762 14
1372 22 611 8 1193 16 1295 19 102 3 425 9 718 12 292 4 532 9 532 12 0 3 -16
38 -35 78 -37 76 -91 134 -170 177 -47 27 -7 26 -1411 47 -351 5 -877 14
-1169 19 -291 6 -722 13 -956 16 l-426 6 -6 -77z"/>
<path d="M2017 4294 c-4 -4 -5 -28 -2 -53 2 -25 9 -93 15 -151 6 -58 16 -134
22 -169 l11 -63 226 6 c382 10 680 16 1366 26 363 5 784 12 935 15 151 3 466
8 700 11 l424 7 176 146 c160 133 193 162 187 167 -1 1 -378 7 -837 13 -459 6
-947 13 -1085 16 -137 3 -515 10 -840 15 -324 5 -747 12 -940 16 -192 3 -353
2 -358 -2z"/>
<path d="M2079 3799 c-6 -3 -6 -17 0 -35 5 -16 16 -65 25 -109 20 -97 38 -161
79 -284 l32 -94 465 6 c256 4 614 12 795 17 182 5 598 15 925 20 327 6 597 14
600 18 3 4 30 27 60 52 30 25 57 47 60 50 3 3 37 30 75 60 39 30 75 59 81 65
6 5 59 48 117 95 84 66 103 86 89 91 -9 4 -163 8 -342 8 -179 1 -406 3 -505 6
-99 3 -640 10 -1203 16 -563 6 -1096 14 -1184 17 -88 4 -164 4 -169 1z"/>
<path d="M2245 3198 c28 -91 168 -397 188 -410 12 -7 274 -3 837 13 195 5 522
14 727 19 338 8 373 10 390 27 11 10 37 32 58 50 22 17 92 73 156 125 64 51
132 105 150 119 l34 27 -85 6 c-47 3 -269 8 -495 11 -708 9 -1572 24 -1773 30
l-194 6 7 -23z"/>
<path d="M2491 2674 c55 -100 215 -337 308 -456 91 -116 325 -368 342 -368 8
0 541 420 559 440 3 3 28 24 55 45 28 22 52 42 55 45 3 3 48 39 100 80 52 40
97 76 100 80 3 3 40 34 83 69 42 35 77 67 77 71 0 11 -200 17 -1433 46 l-278
6 32 -58z"/>
</g>
</svg>
